<svg xmlns="http://www.w3.org/2000/svg">

    <symbol id="project" viewBox="0 0 72 80">
        <circle cx="35.6" cy="44.4" r="34.5" fill="#87DCFF" />
        <path fill="#00C3FF"  d="M46.9 67.6A34.5 34.5 0 0 1 17.5 15 34.5 34.5 0 1 0 65 62.5a34.3 34.3 0 0 1-18.1 5.1z"/>
        <path fill="#AFD755"  d="M6.8 63.6l1-8.8A2.2 2.2 0 0 0 7 53l-6-5.6a34.3 34.3 0 0 0 5.7 16.2z"/>
        <path fill="#BEE86E"  d="M35.6 10h-.3l-1.9 8H26c-.5 0-1 .3-1 .9l-.7 4.6-3.4.2a1.1 1.1 0 0 0-1 1l-.2 3a1.1 1.1 0 0 0 1.2 1.1l3.2-.2 2.7-3.7 7.8-.3 1.7 2.6a2.2 2.2 0 0 0 2.4.9l2.9-.8.7-1.9a2.2 2.2 0 0 1 1.6-1.4l1.4-.3a1.6 1.6 0 1 1 .5 3.1l-4.2.5v1.4l3.3 1.8-1.1 1.7H33.3l-9.2-3.6-8.2 7.6a2.2 2.2 0 0 0-.6 2.1l1.5 6.2a2.2 2.2 0 0 0 2 1.7l8.4.5a3.3 3.3 0 0 1 3.2 3l.7 7.7 2.8 7.4a3.2 3.2 0 0 0 5.2 1.2l7.5-6.8a3.3 3.3 0 0 0 1.1-2l.8-5.5 5.4-6a1.1 1.1 0 0 0-.6-1.9l-1-.1.1-.4 7.6-5-1.7-2.5 3.1-.4a2.2 2.2 0 0 1 2.2 1.2l2.3 4.1 1.5 2.9c.3.5.7.8 1.3 1l1.4.6v-.8C70 25.4 54.6 10 35.6 10z"/>
        <path fill="#000"  d="M60.7 19.3a35.3 35.3 0 0 0-50.3 0 35.3 35.3 0 0 0 0 50.3 35.3 35.3 0 0 0 50.3 0 35.3 35.3 0 0 0 0-50.3zm-54 35.4l-.6 5.7A33 33 0 0 1 2.5 50l3.9 3.7c.3.3.4.6.3 1zm52.5 13.4a33.3 33.3 0 0 1-47.3 0 33.8 33.8 0 0 1-4-4.8l1-8.4a3.3 3.3 0 0 0-1-2.7l-5.7-5.5a34.2 34.2 0 0 1-.1-2.3 33.3 33.3 0 0 1 23.7-32l-.7 1.8a1 1 0 1 0 2 .7l1.2-3.1a33.6 33.6 0 0 1 5.3-.8L32 16.8H26a2.2 2.2 0 0 0-2 2l-.6 3.7-2.5.1a2.1 2.1 0 0 0-2 2l-.2 3A2.2 2.2 0 0 0 21 30h.2l-2.1 2a1 1 0 1 0 1.4 1.5l3.9-3.6 8.5 3.4h10.9c.3 0 .6-.1.8-.4l1.2-1.8a1 1 0 0 0-.4-1.5l-2.6-1.3 3.1-.4a2.6 2.6 0 0 0 2.3-2.7 2.6 2.6 0 0 0-1-1.9 2.6 2.6 0 0 0-2-.5l-1.5.3c-1 .2-2 1-2.4 2l-.5 1.4-2.4.7a1.2 1.2 0 0 1-1.3-.5L35.5 24a1 1 0 0 0-1-.4l-7.7.3a1 1 0 0 0-.9.4l-2.3 3.3-2.7.2h-.1l.1-3v-.1l3.5-.2c.5 0 .9-.4 1-.9L26 19h6.1l5.8-1.7c.3 0 .6-.3.7-.6l.7-2a1 1 0 0 0-2-.8l-.5 1.6-2.4.6 1.3-5.1A33.2 33.2 0 0 1 69 43.6a1.2 1.2 0 0 1-.7-.5l-1.5-2.9a1 1 0 1 0-1.8 1l1.5 2.9a3.3 3.3 0 0 0 1.9 1.5l.6.2a33.2 33.2 0 0 1-9.8 22.3zM33 30c.5 0 1-.4 1-.9l1-2.3.5 1A3.3 3.3 0 0 0 39 29l1.5-.4c0 .4.2.8.6 1l2.3 1.1-.2.4h-9.7L25.8 28l1.5-2.2 5.7-.2L32 29c0 .6.4 1 1 1zm10.3-4v-.2c.2-.4.5-.7 1-.8l1.3-.2a.5.5 0 0 1 .6.4.5.5 0 0 1-.4.6l-2.5.3z"/>
        <path fill="#000"  d="M54.2 57.3a1 1 0 0 0-1.5.1l-3 3.5a1 1 0 0 0 1.7 1.3l3-3.4a1 1 0 0 0-.2-1.5zm7.1-22.9l-5 .6-3.3-2.8a1 1 0 0 0-1.5.2 1 1 0 0 0 .2 1.3l3.5 3.2c.2.2.5.3.8.2l1.8-.2.8 1-6.7 4.5a.4.4 0 0 1-.5-.1l-4.4-7a1 1 0 0 0-1.5-.2 1 1 0 0 0-.2 1.4L50 44c.1.3.4.5.7.5l2.4.4v.1l-5.4 6a1 1 0 0 0-.2.5l-.8 5.5a2.3 2.3 0 0 1-.8 1.4l-7.5 6.8c-.4.4-1 .6-1.5.6a2.2 2.2 0 0 1-2-1.4l-2.8-7.3-.7-7.5a4.4 4.4 0 0 0-4.1-4l-8.4-.4a1.2 1.2 0 0 1-1.1-1l-1.5-6.1c-.1-.4 0-.9.3-1.2l.8-.7c.5-.4.5-1 .2-1.5a1 1 0 0 0-1.5 0l-.9.7a3.3 3.3 0 0 0-1 3.2l1.6 6.2a3.3 3.3 0 0 0 3 2.4l8.4.5c1.1 0 2 1 2.2 2l.7 7.8v.3L33 65a4.3 4.3 0 0 0 4 2.8c1 0 2-.4 2.8-1.1l7.5-6.9a4.4 4.4 0 0 0 1.4-2.6l.8-5.2 5.2-5.7a2.2 2.2 0 0 0-.3-3.1l6.2-4.2.3-.3a1 1 0 0 0 0-1.2l-.7-1 1.3-.1c.5 0 1 .2 1.2.6a1 1 0 0 0 1.6.3c.4-.3.5-.9.2-1.3a3.3 3.3 0 0 0-3.2-1.7zM52.5 29a1 1 0 1 0 1.7-1.2L52 24.3a1 1 0 0 0-1.7 1.2l2.3 3.4z"/>
        <g transform="translate(2.4 38)">
            <path stroke="#556080" stroke-linecap="round" stroke-width="3" d="M4.2 8.4v5.5"/>
            <circle cx="4.2" cy="4.2" r="4.2" fill="#DD352E" />
            <circle cx="2.7" cy="3" r="1" fill="#F76363" />
        </g>
        <g transform="translate(28.4 33.2)">
            <path stroke="#556080" stroke-linecap="round" stroke-width="3" d="M4.2 8.4v5.5"/>
            <circle cx="4.2" cy="4.2" r="4.2" fill="#DD352E" />
            <circle cx="2.7" cy="3" r="1" fill="#F76363" />
        </g>
        <g transform="translate(38.5)">
            <path stroke="#556080" stroke-linecap="round" stroke-width="3" d="M4.2 8.4v5.5"/>
            <circle cx="4.2" cy="4.2" r="4.2" fill="#DD352E" />
            <circle cx="2.7" cy="3" r="1" fill="#F76363" />
        </g>
    </symbol>

    <symbol id="symposium" viewBox="0 0 80 80">
        <path fill="#B3DCF4" d="M50.3 4a29 29 0 0 1 6.6 8c1.4 2.5 2.6 5.2 3.6 8.2 3.6-.7 8-2.1 10.7-3.2-4.8-6.4-12.1-13-20.9-13z"/>
        <path fill="#6CB8DD" d="M22 20.6A112 112 0 0 0 38.7 22V2.6c-5 .5-9.7 4.3-13.4 10.6a42.3 42.3 0 0 0-3.3 7.4z"/>
        <path fill="#B3DCF4" d="M61.3 22.6c1.4 5 2.2 10.5 2.3 16.1h13.8a37.2 37.2 0 0 0-6-19 56.4 56.4 0 0 1-10.1 2.9z"/>
        <path d="M10 17.5c2.7 1 6 2 9.5 2.6 1-2.9 2.2-5.6 3.6-8.1 2-3.4 4.1-6 6.6-8-8 2.3-14.8 7-19.7 13.5zm6.4 21.2c.1-5.6 1-11.1 2.3-16.1-3.8-.8-7.3-1.8-10.2-3a37.2 37.2 0 0 0-6 19.1h14z" fill="#6CB8DD"/>
        <path d="M63.6 41.3a69.3 69.3 0 0 1-.1 2.5c4.2.6 7.4 4.2 7.4 8.5v2.2a3.6 3.6 0 0 1-2 6.4 6.6 6.6 0 0 1-2.9 3.6v.7l1.3.5a37.3 37.3 0 0 0 10.2-24.4h-14zm-12.8 4.4v3a4.1 4.1 0 0 1 1.6 3.2c0 2.3-1.8 4.1-4 4.2a8 8 0 0 1-3.7 4.6V62l6.5 2.7c.8.3 2 1 3 2l4-1.5v-.7a6.6 6.6 0 0 1-3-3.6 3.6 3.6 0 1 1-2-6.4v-2.2c0-4.4 3.5-8 7.8-8.5a67.1 67.1 0 0 0 0-2.5H49.9c.6 1.3 1 2.8 1 4.4z" fill="#96CEEE"/>
        <path d="M31.9 38.7h.1a10.3 10.3 0 0 1 6.7-3.3V24.5A114 114 0 0 1 21.2 23 61 61 0 0 0 19 38.7h13zm-5 13.6v2.2a3.6 3.6 0 0 1-2 6.4 6.6 6.6 0 0 1-3 3.6v.7l3.9 1.6a8 8 0 0 1 3-2.1l6.7-2.7v-1.3a8 8 0 0 1-3.7-4.6 4.1 4.1 0 1 1-2.4-7.5v-3c0-1.5.3-3 1-4.3H18.9l.1 2.5c4.4.4 7.9 4 7.9 8.5z" fill="#6CB8DD"/>
        <path d="M41.3 2.6V22c5.9 0 11.6-.6 16.7-1.4-1-2.7-2-5.1-3.3-7.4C51 7 46.3 3.2 41.3 2.6zm0 21.9v10.9a10.3 10.3 0 0 1 6.8 3.3h13c-.2-5.5-1-10.8-2.3-15.7-5.4 1-11.3 1.4-17.5 1.5z" fill="#B3DCF4"/>
        <path fill="#6CB8DD" d="M12.8 65.8l1.4-.6v-.7a6.6 6.6 0 0 1-3-3.6 3.6 3.6 0 1 1-2-6.4v-2.2c0-4.3 3.2-7.8 7.3-8.4a68.9 68.9 0 0 1 0-2.6h-14a37.3 37.3 0 0 0 10.3 24.5z"/>
        <path fill="#B3DCF4" d="M40.7 1c-2.9 0-5.7.4-8.3 1A37.9 37.9 0 0 0 23 26.8a38 38 0 0 0 47.2 36.9c5.6-6.6 9-15.2 9-24.5 0-21-17.3-38.1-38.6-38.1z"/>
        <path d="M18.3 45.9h-.6a6.4 6.4 0 0 0-6.4 6.4v1.4l.6-.2h.2c.1 0 5.5 0 7.9-3.4a.8.8 0 0 1 .8-.3c.3 0 .6.3.7.6 0 .1.6 2.6 2.6 3v.1l.6.2v-1.4a6.4 6.4 0 0 0-6.4-6.4zm44.1 0h-.6a6.4 6.4 0 0 0-6.4 6.4v1.4l.6-.2h.1a.9.9 0 0 1 .1 0s5.4 0 7.8-3.4a.9.9 0 0 1 .9-.3c.3 0 .6.3.6.6 0 .1.7 2.6 2.7 3v.1l.6.2v-1.4a6.4 6.4 0 0 0-6.4-6.4zm-22-8.5h-.7a8.2 8.2 0 0 0-8.2 8.3v2.5l.7-.6v-.1h.1l.1-.1h.2a.9.9 0 0 1 .1 0c.1 0 6.9-.1 10-4.4a.9.9 0 0 1 .8-.3c.3 0 .6.3.7.6 0 .2.8 3.5 3.4 4h.1l.1.1h.1a.7.7 0 0 1 0 .1l.8.6v-2.4c0-4.6-3.7-8.3-8.2-8.3z" fill="#694B4B"/>
        <path d="M13.5 52.3c0-3.3 2.5-6 5.6-6.4a6.4 6.4 0 0 0-.8 0h-.6a6.4 6.4 0 0 0-6.4 6.4v1.4l.6-.2h.2a11.6 11.6 0 0 0 1.4-.2v-1zm44 0c0-3.3 2.5-6 5.7-6.4a6.4 6.4 0 0 0-.8 0h-.6a6.4 6.4 0 0 0-6.4 6.4v1.4l.6-.2h.1a.9.9 0 0 1 .1 0l1.4-.2v-1zm-23.8-6.6c0-4.3 3.3-7.9 7.5-8.2a8.3 8.3 0 0 0-.7 0h-.8a8.2 8.2 0 0 0-8.2 8.2v2.5l.7-.6v-.1h.1l.1-.1h.2a.9.9 0 0 1 .1 0l1-.1v-1.6z" fill="#563B3B"/>
        <path fill="#FBCB99" d="M62.7 65h-1.9l-.5-.1v1.5l1.8 1.7 1.8-1.9V65h-1.2z"/>
        <path fill="#E9B280" d="M54.7 56.2h-.2v.1a1.5 1.5 0 0 0 .2 2.2l.7.5v-3l-.6.2a.8.8 0 0 1-.1 0z"/>
        <path d="M64.7 52.6l-.3-.4-.4.3c-2.2 1.9-5 2.4-6.5 2.6H57v3.7a4.5 4.5 0 0 0 4.4 4.5h1.2a4.5 4.5 0 0 0 4.5-4.5V55h-.3c-.9-.5-1.6-1.2-2.2-2.3zm-44.1 0l-.3-.4-.3.3c-2.2 1.9-5.1 2.4-6.6 2.6H13v3.7a4.5 4.5 0 0 0 4.5 4.5h1.1a4.5 4.5 0 0 0 4.5-4.5V55h-.2c-1-.5-1.7-1.2-2.3-2.3zm-2 12.4H16.7l-.4-.1v1.5l1.7 1.7 1.8-1.9V65H18.6zm7-8.8h-.2l-.6-.2v3l.6-.5a1.5 1.5 0 0 0 .3-2.2l-.1-.1zm44 0h-.1a.8.8 0 0 1-.1 0l-.6-.2v3l.7-.5a1.5 1.5 0 0 0 .2-2.2v-.1zM43.3 45.7l-.3-.5-.4.4A15.4 15.4 0 0 1 34 49h-.4v4.8c0 3.2 2.6 5.8 5.8 5.8h1.4c3.2 0 5.8-2.6 5.8-5.8v-5l-.2-.1c-1.6-.7-2.6-2-3.1-3z" fill="#FBCB99"/>
        <path d="M59 58.8v-3.7h.3c1.3-.2 3.7-.6 5.7-2a6.7 6.7 0 0 1-.3-.5l-.3-.4-.4.3c-2.2 1.9-5 2.4-6.5 2.6H57v3.7a4.5 4.5 0 0 0 4.4 4.5H63a4.5 4.5 0 0 1-4-4.5zm-44.1 0v-3.7h.3c1.4-.2 3.7-.6 5.7-2a6.7 6.7 0 0 1-.3-.5l-.3-.4-.3.3c-2.2 1.9-5.1 2.4-6.6 2.6H13v3.7a4.5 4.5 0 0 0 4.5 4.5H19a4.5 4.5 0 0 1-4.1-4.5zm20.5-5V49h.4c1.9-.2 5.1-.8 7.8-2.7a8 8 0 0 1-.3-.6l-.3-.5-.4.4A15.4 15.4 0 0 1 34 49h-.4v4.8c0 3.2 2.6 5.8 5.8 5.8H41a5.8 5.8 0 0 1-5.6-5.8z" fill="#EDBA89"/>
        <path fill="#FBCB99" d="M49.6 50.3h-.2a.8.8 0 0 1-.4-.2l-.7-.5V54l.5-.1a2 2 0 0 0 1.5-2 2 2 0 0 0-.6-1.5h-.1z"/>
        <path fill="#E9B280" d="M30.7 50.3h-.2v.2a2 2 0 0 0 .9 3.4l.5.1v-4.5l-.7.6a.8.8 0 0 1-.5.2z"/>
        <path fill="#FBCB99" d="M40.8 61.3h-2.7l-.4-.2v2.3l2.4 2.3 2.4-2.5v-2h-.4a7.6 7.6 0 0 1-1.3.1z"/>
        <path d="M62.2 66.4V65h-1.4l-.5-.1v1.5l1.8 1.7.9-1-.8-.7zm-44 0V65h-1.5l-.4-.1v1.5l1.7 1.7 1-1-.9-.7zm21.3-3v-2h-.1l-1.3-.2h-.4v2.2l2.4 2.3.9-.9-1.5-1.4z" fill="#EDBA89"/>
        <path fill="#E9B280" d="M10.6 56.2h-.1l-.1.1a1.5 1.5 0 0 0 .3 2.2l.6.5v-3l-.5.2a.8.8 0 0 1-.2 0z"/>
        <path d="M50.5 66.6L44 64.1l-3.3 3.4a.8.8 0 0 1-1.2 0l-3.3-3.1-.2-.3-6.4 2.5c-.2.1-4.1 1.5-4.1 6.5v5.8h29v-5.8c0-5-3.9-6.4-4-6.5zM18.6 70a.9.9 0 0 1-.6.2.8.8 0 0 1-.6-.2l-2.7-2.6-5 2c-.2 0-3.2 1.1-3.2 5v3.6h17.3v-4.8a9 9 0 0 1 .9-4l.2-.4-3.7-1.5-2.6 2.7zm51.8-.7l-5.1-2-2.6 2.7a.9.9 0 0 1-.6.2.8.8 0 0 1-.6-.2l-2.7-2.7-3.6 1.5.2.4a9 9 0 0 1 .8 4v4.8h17.3v-3.7c0-3.8-3-5-3.1-5z" fill="#6598CB"/>
        <path d="M31.6 66.7l5-2-.4-.3-.2-.3-6.4 2.5c-.2.1-4.1 1.5-4.1 6.5v4.8h2v-4.8c0-5 3.9-6.4 4-6.4zm-20 2.5a1 1 0 0 0 .1 0l3.6-1.4-.6-.5-5 2c-.2 0-3.2 1.1-3.2 5v3.6h2v-3.7c0-3.8 3-5 3.2-5zm45.8-.1l-.2-.4 2.2-.9-.6-.5-3.6 1.4.2.4a9 9 0 0 1 .8 4v4.8h2v-4.8a9 9 0 0 0-.8-4z" fill="#4982AA"/>
        <path fill="#202121" d="M71 67.3l-1.2-.6A39.8 39.8 0 0 0 80 40a40 40 0 0 0-7-22.5 1.3 1.3 0 0 0-.1-.3 40.1 40.1 0 0 0-7-7.7 1.3 1.3 0 1 0-1.6 2 37.6 37.6 0 0 1 5.7 6c-2.7 1-5.9 2-9.5 2.7-1-3-2.2-5.7-3.6-8.2a29 29 0 0 0-6.6-8A37.2 37.2 0 0 1 61 9a1.3 1.3 0 1 0 1.4-2.2 39.8 39.8 0 0 0-50.7 5 39.7 39.7 0 0 0-1.4 55l-1.3.4c-.5.2-4.6 1.8-4.6 7v4.5c0 .7.6 1.3 1.3 1.3h24.1a1.3 1.3 0 1 0 0-2.5h-4V73c0-4.7 3.7-6 3.9-6l6.2-2.5 3.3 3.2c.2.3.6.4.9.4.3 0 .7-.1.9-.4l3.1-3.2 6.2 2.4c.2.1 3.8 1.4 3.8 6v4.5H33.7a1.3 1.3 0 1 0 0 2.5h40.6a1.3 1.3 0 0 0 1.3-1.3v-4.5c0-5.1-4-6.8-4.5-7zm-5-2v-.8a6.6 6.6 0 0 0 3-3.6 3.6 3.6 0 1 0 2-6.4v-2.2c0-4.3-3.3-8-7.5-8.5v-2.5h14a37.3 37.3 0 0 1-10.2 24.4l-1.3-.5zm-11.5-8c0-.3 0-.5.2-.7h.3v1.6a1 1 0 0 1-.5-.9zm-13.7 2h-1.4a5.4 5.4 0 0 1-5.4-5.5v-4.4c2-.2 6-1 9-3.5a6.9 6.9 0 0 0 3.2 3.2v4.7a5.4 5.4 0 0 1-5.4 5.4zm-10.6-7.4c0-.4.2-.8.5-1.1.3 0 .6-.2.8-.3v3a1.6 1.6 0 0 1-1.3-1.6zM32 38.7h-13A61 61 0 0 1 21.2 23c5.4 1 11.4 1.4 17.5 1.5v10.9a10.3 10.3 0 0 0-6.7 3.3 1.3 1.3 0 0 0-.1 0zM16.7 65.3l.8.1H19.4v.6L18 67.5l-1.3-1.3v-.9zm2-2.4h-1.2a4 4 0 0 1-4-4v-3.4a13 13 0 0 0 6.7-2.6c.5.8 1.3 1.7 2.5 2.3v3.6a4 4 0 0 1-4 4zm-8.3-5.6c0-.3.1-.5.3-.7h.2v1.6a1 1 0 0 1-.5-.9zm14.8-.8h.2a1 1 0 0 1-.2 1.7v-1.7zm-.9-3.4c-1.8-.4-2.4-2.8-2.4-2.8a1.3 1.3 0 0 0-2.3-.5C17.3 53 12.2 53 12.2 53H11.9l-.1.1v-.8a6 6 0 0 1 6-6h.5a6 6 0 0 1 6 6v.8zM2.5 38.7a37.2 37.2 0 0 1 6-19c2.9 1.1 6.4 2.1 10.2 2.9-1.4 5-2.2 10.5-2.3 16.1H2.6zm45.8 7v1.5a1.2 1.2 0 0 0-.1 0 .8.8 0 0 0-.2-.1l-.1-.1a1.3 1.3 0 0 0-.1 0c-2.5-.6-3.2-3.7-3.2-3.8a1.3 1.3 0 0 0-2.3-.4c-3 4-9.5 4.1-9.6 4.1h-.1-.1-.1l-.2.1-.1.1H32v.1h-.1v-1.5c0-4.3 3.5-7.8 7.8-7.8h.8c4.3 0 7.8 3.5 7.8 7.8zM38.7 2.6V22c-5.9 0-11.6-.6-16.7-1.4 1-2.7 2-5.1 3.3-7.4C29 7 33.7 3.2 38.7 2.6zm10 47.9l.7.2a1.6 1.6 0 0 1-.7 2.8v-3zm-.6-11.8a10.3 10.3 0 0 0-6.8-3.3V24.5c6.2 0 12.1-.6 17.5-1.5A61 61 0 0 1 61 38.7H48zm13.7 7.6h.6a6 6 0 0 1 6 6v.8h-.1c-1.8-.4-2.4-2.8-2.4-2.8a1.3 1.3 0 0 0-2.2-.5C61.4 53 56.3 53 56.2 53h-.1-.1l-.1.1v-.8a6 6 0 0 1 5.9-6zm7.5 10.2h.1a1 1 0 0 1-.1 1.7v-1.7zm-11.8-1a13 13 0 0 0 6.8-2.6c.5.8 1.3 1.8 2.4 2.3v3.6a4 4 0 0 1-4 4h-1.2a4 4 0 0 1-4-4v-3.3zm3.3 9.9h2.7v.7L62 67.5l-1.3-1.3v-.8zm10.7-45.8a37.4 37.4 0 0 1 6 19.1h-14c0-5.6-.8-11.1-2.2-16.1 3.9-.8 7.3-1.8 10.2-3zm-16.8-6.4c1.3 2.3 2.4 4.7 3.3 7.4A112 112 0 0 1 41.3 22V2.6c5 .5 9.7 4.3 13.4 10.6zM29.7 4a29 29 0 0 0-6.6 8 45.1 45.1 0 0 0-3.6 8.1c-3.6-.7-6.8-1.5-9.5-2.6A37.6 37.6 0 0 1 29.7 4zM2.6 41.3h13.8l.1 2.6a8.5 8.5 0 0 0-7.3 8.4v2.2a3.6 3.6 0 0 0 2 6.4 6.6 6.6 0 0 0 3 3.6v.7l-1.4.6A37.3 37.3 0 0 1 2.5 41.3zm12.8 36.2H7v-3.3c0-3.5 2.8-4.5 2.9-4.6l4.8-1.9 2.6 2.5c.2.2.5.4.8.4.4 0 .7-.2 1-.4l2.3-2.5 3 1.2c-.6 1.1-1 2.5-1 4.2v4.4h-7.9zm13.4-12.8c-.8.3-2 1-3 2l-3.9-1.5v-.7a6.6 6.6 0 0 0 3-3.6 3.6 3.6 0 1 0 2-6.4v-2.2c0-4.5-3.5-8.1-7.9-8.5a66.5 66.5 0 0 1 0-2.5h11.4a10.3 10.3 0 0 0-1 4.4v3a4.1 4.1 0 0 0-1.7 3.2 4.2 4.2 0 0 0 4.1 4.2 8 8 0 0 0 3.8 4.6V62l-6.8 2.7zm11.3.4l-2-1.9v-1.6l1.3.1H42V63l-2 2.1zm11-.4L44.8 62v-1.3a8 8 0 0 0 3.7-4.6 4.1 4.1 0 1 0 2.4-7.5v-3c0-1.5-.4-3-1-4.3h11.3l-.1 2.5c-4.3.4-7.7 4-7.7 8.5v2.2a3.6 3.6 0 0 0 2 6.4 6.6 6.6 0 0 0 3 3.6v.7l-4 1.6a8 8 0 0 0-3.1-2.1zm22 12.8H56.7V73c0-1.7-.4-3-1-4.2l3-1.2 2.5 2.5c.3.2.6.4.9.4.4 0 .7-.2 1-.4l2.3-2.5 4.8 1.9c.1 0 2.9 1 2.9 4.6v3.3z"/>
        <path d="M72.8 54.5v-2.2a8.5 8.5 0 0 0-2.3-5.8 8.6 8.6 0 0 0-2-1.6c-2.4-1.3-5-1-5-1 4.2.5 7.4 4 7.4 8.4v2.2a3.6 3.6 0 0 1-2 6.4 6.6 6.6 0 0 1-2.9 3.6v.7l1.3.5.6-.6v-.6a6.6 6.6 0 0 0 1.4-1.1l.9-1.2.6-1.3h.4a37.3 37.3 0 0 0 2.7-4.8 3.6 3.6 0 0 0-1.1-1.6zM53 64.7L46.5 62v-1.3a8 8 0 0 0 3.8-4.6 4.1 4.1 0 0 0 2.3-.8l.7-.8v-2.2c0-.9.1-1.7.4-2.5a4.2 4.2 0 0 0-1-1.2v-3c0-1.5-.4-3-1-4.3h-1.9c.6 1.3 1 2.8 1 4.4v3a4.1 4.1 0 0 1 1.6 3.2c0 2.3-1.8 4.1-4 4.2a8 8 0 0 1-3.7 4.6V62l6.5 2.7c.8.3 2 1 3 2l1.4-.5a7.8 7.8 0 0 0-2.6-1.5zm-23.6-9.5a4.1 4.1 0 0 1-1-5.4 8.5 8.5 0 0 0-2.6-4 8.5 8.5 0 0 0-2.3-1.4c-2.3-.9-4.5-.6-4.5-.6 4.4.4 7.9 4 7.9 8.5v2.2a3.6 3.6 0 0 1-2 6.4 6.6 6.6 0 0 1-3 3.6v.7l3.9 1.6.5-.6-2.5-1v-.7a6.6 6.6 0 0 0 3-3.6 3.6 3.6 0 0 0 3.2-3.6c0-.8-.2-1.5-.6-2zM48 38.7H50a10.4 10.4 0 0 0-2.2-1.8c-1.4-.9-3.6-1.7-6.5-1.5a10.3 10.3 0 0 1 6.8 3.3z" fill="#6CB8DD"/>
    </symbol>

    <symbol id="help" viewBox="0 0 82 80">
            <path fill="#F8CE19" d="M41 10a6 6 0 0 0-6 6 6 6 0 0 0 3 5v3h2v-5a1 1 0 0 1 2 0v5h1v-2-1a6 6 0 0 0 4-5 6 6 0 0 0-6-6z"/>
            <path d="M40 21a6 6 0 0 1-4-5 6 6 0 0 1 5-6 6 6 0 0 0-6 6 6 6 0 0 0 3 5v3h2v-3zm3-2a1 1 0 0 0-2 0h1v5h1v-2-3z" fill="#FBB616"/>
            <path fill="#A49F9F" d="M38 26h5v3h-5z"/>
            <path fill="#6598CB" d="M76 70l-5-2-2 3a1 1 0 0 1-1 0h-1l-2-3-4 2c-1 0-3 1-3 4v5h21v-5c0-3-3-4-3-4z"/>
            <path d="M71 54h-1c-2 2-5 2-6 2v4a4 4 0 0 0 4 4h1a4 4 0 0 0 4-4v-4l-2-2zm-9 6v-3h-1a1 1 0 0 0 0 2l1 1zm7 6h-1-1v1l1 1 2-1v-1h-1zm6-9v3-1a1 1 0 0 0 0-2z" fill="#FBCB99"/>
            <path fill="#694B4B" d="M69 48h-1a6 6 0 0 0-6 6v1h1v-1s5 0 7-3a1 1 0 0 1 1 0 1 1 0 0 1 1 1s0 2 2 3h1v-1a6 6 0 0 0-6-6z"/>
            <path fill="#4982AA" d="M62 70l3-1v-1l-4 2c-1 0-3 1-3 4v5h1v-5c0-3 3-4 3-4z"/>
            <path fill="#EDBA89" d="M65 60v-4h1l5-1a6 6 0 0 1 0-1h-1c-2 2-5 2-6 2v4a4 4 0 0 0 4 4h1a4 4 0 0 1-4-4z"/>
            <path fill="#563B3B" d="M63 54a6 6 0 0 1 6-6h-1a6 6 0 0 0-6 6v1h1v-1z"/>
            <path fill="#6598CB" d="M48 70l-4-2-2 3a1 1 0 0 1-1 0h-1l-2-3-5 2s-3 1-3 4v5h21v-5c0-3-2-4-3-4z"/>
            <path d="M43 54c-2 2-5 2-7 2v4a4 4 0 0 0 4 4h1a4 4 0 0 0 4-4v-4l-2-2zm-9 6v-3a1 1 0 0 0 0 2v1zm7 6h-2v1l2 1 1-1v-1h-1zm7-9h-1v3l1-1a1 1 0 0 0 0-2z" fill="#FBCB99"/>
            <path fill="#694B4B" d="M41 48h-1a6 6 0 0 0-5 6v0s5 0 7-3a1 1 0 0 1 1 0 1 1 0 0 1 1 1l3 3v-1a6 6 0 0 0-6-6z"/>
            <path fill="#4982AA" d="M34 70l4-1v-1l-5 2s-3 1-3 4v5h1v-5c0-3 3-4 3-4z"/>
            <path fill="#EDBA89" d="M38 60v-4l5-1a6 6 0 0 1 0-1c-2 2-5 2-7 2v4a4 4 0 0 0 4 4h2a4 4 0 0 1-4-4z"/>
            <path fill="#563B3B" d="M36 54a6 6 0 0 1 5-6h-1a6 6 0 0 0-5 6v0h1z"/>
            <path fill="#6598CB" d="M21 70l-5-2-2 3a1 1 0 0 1-1 0h-1l-2-3-5 2s-2 1-2 4v5h21v-5c0-3-3-4-3-4z"/>
            <path d="M15 54c-2 2-5 2-6 2H8v4a4 4 0 0 0 5 4h1a4 4 0 0 0 4-4v-4l-3-2zm-8 6v-3H6a1 1 0 0 0 0 2l1 1zm7 6h-2v1l1 1 2-1v-1h-1zm6-9v3-1a1 1 0 0 0 0-2z" fill="#FBCB99"/>
            <path fill="#694B4B" d="M13 48a6 6 0 0 0-6 6v0a1 1 0 0 1 1 0s5 0 7-3a1 1 0 0 1 1 0 1 1 0 0 1 1 1s0 2 2 3v-1a6 6 0 0 0-6-6z"/>
            <path fill="#4982AA" d="M6 70l4-1v-1l-5 2s-2 1-2 4v5h1v-5c0-3 2-4 2-4z"/>
            <path fill="#EDBA89" d="M10 60v-4l6-1a6 6 0 0 1-1-1c-2 2-5 2-6 2H8v4a4 4 0 0 0 5 4h1a4 4 0 0 1-4-4z"/>
            <path fill="#563B3B" d="M8 54a6 6 0 0 1 6-6 6 6 0 0 0-1 0 6 6 0 0 0-6 6v0a1 1 0 0 1 1 0z"/>
            <g fill="#202121">
                <path d="M49 16a8 8 0 0 0-17 0 8 8 0 0 0 4 7v7l1 1h7l1-1v-7a8 8 0 0 0 4-7zm-14 0a6 6 0 0 1 6-6 6 6 0 0 1 5 6 6 6 0 0 1-3 5v3h-1v-5a1 1 0 1 0-3 0v5-2l-1-1a6 6 0 0 1-3-5zm8 12h-4v-1h4v1zm-1 4h-3a1 1 0 1 0 0 2h3a1 1 0 1 0 0-2zM31 16l-1-2h-4a1 1 0 1 0 0 3h4l1-1zm24-2h-4a1 1 0 1 0 0 3h4a1 1 0 1 0 0-3z"/>
                <path d="M32 23l-3 2a1 1 0 1 0 2 2l3-3a1 1 0 1 0-2-1zM48 9h1l3-3a1 1 0 1 0-2-1l-3 2a1 1 0 0 0 1 2zm-7-3l1-1V1a1 1 0 1 0-3 0v4l2 1zm8 17a1 1 0 1 0-2 1l3 3a1 1 0 0 0 2 0 1 1 0 0 0 0-2l-3-2zM32 9a1 1 0 0 0 2 0 1 1 0 0 0 0-2l-3-2a1 1 0 0 0-2 1l3 3zm17 59l-5-2v-1a6 6 0 0 0 3-3 3 3 0 0 0 3-4 3 3 0 0 0-1-2v-2c0-5-3-8-7-9v-7a1 1 0 1 0-3 0v7c-4 1-7 4-7 9v2a3 3 0 0 0-1 2 3 3 0 0 0 3 4 6 6 0 0 0 3 3v1l-5 2s-4 1-4 6v5l1 1h3a1 1 0 1 0 0-3h-2v-3c0-3 3-4 3-4l4-2 3 3h2l2-3 4 2s3 1 3 4v3H36a1 1 0 1 0 0 3h16l2-1v-5c0-5-4-6-5-6zm-1-9v-1a1 1 0 0 1 0 1zm-8-11h1a6 6 0 0 1 6 6c-2 0-3-2-3-2a1 1 0 0 0-2-1c-2 3-7 3-7 3a6 6 0 0 1 5-6zm-6 10v1a1 1 0 0 1 0-1zm2-1c2 0 5-1 7-3l2 2v4a4 4 0 0 1-4 4h-1a4 4 0 0 1-4-4v-3zm5 11l-1-1v-1h2v1l-1 1zM26 21H13l-1 1v23c-4 1-7 4-7 9v2a3 3 0 0 0-2 2 3 3 0 0 0 3 4 6 6 0 0 0 3 3v1l-5 2s-4 1-4 6v5l1 1h3a1 1 0 1 0 0-3H3v-3c0-3 2-4 2-4l5-2 2 3h2l2-3 5 2s2 1 2 4v3H8a1 1 0 1 0 0 3h17l1-1v-5c0-5-4-6-4-6l-5-2v-1a6 6 0 0 0 3-3 3 3 0 0 0 3-4l-2-2v-2c0-5-3-8-7-9V24h12a1 1 0 1 0 0-3zM6 58v1a1 1 0 0 1 0-1zm7 10l-1-1v-1h2v1l-1 1zm1-4h-2a4 4 0 0 1-3-4v-3l6-3 2 2v4a4 4 0 0 1-3 4zm6-5v-1a1 1 0 0 1 0 1zm-1-5c-2 0-2-2-2-2a1 1 0 0 0-3-1c-2 3-6 3-7 3a6 6 0 0 1 6-6 6 6 0 0 1 6 6zm58 14l-5-2v-1a6 6 0 0 0 3-3 3 3 0 0 0 3-4 3 3 0 0 0-1-2v-2c0-5-3-8-7-9V22l-2-1H55a1 1 0 1 0 0 3h12v21c-4 1-7 4-7 9v2a3 3 0 0 0-1 2 3 3 0 0 0 3 4 6 6 0 0 0 3 3v1l-5 2c-1 0-5 1-5 6v5l2 1h3a1 1 0 1 0 0-3h-2v-3c0-3 2-4 3-4l4-2 2 3h2l3-3 4 2s3 1 3 4v3H64a1 1 0 1 0 0 3h16l1-1v-5c0-5-4-6-4-6zm-2-9v-1a1 1 0 0 1 0 1zm-7-11h1a6 6 0 0 1 5 6l-2-2a1 1 0 0 0-2-1c-2 3-7 3-7 3h-1a6 6 0 0 1 6-6zm-7 10v1a1 1 0 0 1 0-1zm3-1l6-3 3 2v4a4 4 0 0 1-4 4h-1a4 4 0 0 1-4-4v-3zm4 11l-1-1v-1h3v1l-2 1z"/>
            </g>
    </symbol>

    <symbol id="faqs" viewBox="0 0 84 81">
            <path fill="#00C3FF" d="M50 63l-13-5-9 3-10-3-13 5a6 6 0 0 0-4 5v11h53V68a6 6 0 0 0-4-5z"/>
            <path fill="#00AAF0" d="M52 64a6 6 0 0 1 2 4v11H44v-5l2-4 6-6z"/>
            <path fill="#5A4146" d="M44 26V13a3 3 0 0 0-3-3H23c-7 0-12 6-12 13v8l1 2v2h31v-1-1l1-2v-5z"/>
            <path fill="#694B4B" d="M18 16a6 6 0 0 0 7 7l1 12h17v-1-1l1-2V13a3 3 0 0 0-3-3H25a6 6 0 0 0-7 6z"/>
            <path fill="#E6AF78" d="M18 47h19v14H18z"/>
            <path fill="#D29B6E" d="M18 54a20 20 0 0 0 10 2l9-2v-7H18v7z"/>
            <path d="M28 61l-5 5a2 2 0 0 1-3 0l-5-7 2-3a2 2 0 0 1 2 0l9 5zm0 0l4 5a2 2 0 0 0 3 0l5-7-1-3a2 2 0 0 0-3 0l-8 5z" fill="#00AAF0"/>
            <path fill="#F0C087" d="M28 52c-9 0-16-7-16-16v-1l3-2a5 5 0 0 0 2-4v-5s12-5 21 3v2l2 4 3 2v1c0 9-7 16-15 16z"/>
            <path fill="#00AAF0" d="M3 64a6 6 0 0 0-2 4v11h10v-5l-2-4-6-6z"/>
            <path fill="#E6AF78" d="M24 28c3-1 9-1 14 1v-2c-9-8-21-3-21-3v5l-2 4-3 2v1c0 8 6 15 14 16a15 15 0 0 1-5-11V31a3 3 0 0 1 3-3z"/>
            <path fill="#000" d="M18 25h10c4 0 7 1 9 3a1 1 0 1 0 2-2c-5-5-16-4-21-4a3 3 0 0 0-3 3v4a1 1 0 0 0 3 0v-4z"/>
            <path fill="#000" d="M50 61l-9-3a1 1 0 0 0 0-1l-3-3v-5h1a17 17 0 0 0 5-13v-3a17 17 0 0 0 2-7V10l-2-1H23C15 9 9 15 9 23v3l2 7v3c0 5 2 10 6 13v5l-3 3a1 1 0 0 0 0 1l-9 3a8 8 0 0 0-5 7v11a1 1 0 0 0 3 0V68a5 5 0 0 1 3-4l9-3 4 5a3 3 0 0 0 3 2l2-1 2-3v15a1 1 0 0 0 3 0V64l2 3a3 3 0 0 0 3 1 3 3 0 0 0 2-2l4-5 9 3a5 5 0 0 1 3 4v11a1 1 0 0 0 3 0V68a8 8 0 0 0-5-7zM14 36v-4h-1a14 14 0 0 1-1-6v-3c0-6 5-11 11-11h20v14l-1 6a1 1 0 0 0-1 0v4c0 4-1 8-4 11-3 2-6 4-10 3-8 0-13-7-13-14zm12 17h2c2 0 5 0 7-2v3l-7 5-8-5v-3a16 16 0 0 0 6 2zm-4 12l-5-7 2-1 6 4-3 4zm12 0h-1l-3-4 7-4 1 1-4 7z"/>
            <path fill="#000" d="M11 72l-2 1v6a1 1 0 0 0 3 0v-6l-1-1zm33 0l-1 1v6a1 1 0 0 0 3 0v-6l-2-1z"/>
            <path fill="#E2E7F2" d="M80 15H55c-2 0-4 2-4 3v18c0 2 2 3 4 3h3l-2 7 1 1 12-8h11c2 0 4-1 4-3V18c0-1-2-3-4-3z"/>
            <path fill="#D5DCED" d="M67 37h-2a4 4 0 0 1-4-4V15h11v18a4 4 0 0 1-5 4z"/>
            <path fill="#000" d="M79 14h-6l-1 1 1 1h6l2 2v18l-2 2H67l-10 7 2-6a1 1 0 0 0 0-1 1 1 0 0 0-1 0h-4l-2-2V18l2-2h6l1-1-1-1h-6c-2 0-4 2-4 4v18c0 2 2 4 4 4h2l-1 6a2 2 0 0 0 0 2 2 2 0 0 0 2 0l11-8h11c2 0 4-2 4-4V18c0-2-2-4-4-4z"/>
            <path fill="#F70644" stroke="#000" stroke-width="2" d="M58 5l1-1a11 11 0 0 1 4-2 12 12 0 0 1 5 0l3 2a6 6 0 0 1 1 2l1 3v2a7 7 0 0 1-2 2 9 9 0 0 1-1 2 216 216 0 0 1-3 3l-1 3h-3l-1-3a1 1 0 0 1 0-1l1-1a6 6 0 0 1 1-2l1-1 2-1 1-1a4 4 0 0 0 0-3 3 3 0 0 0-1-1 3 3 0 0 0-1-1 5 5 0 0 0-1 0h-2a7 7 0 0 0-2 1h-2l-1-2zm4 23v-1a3 3 0 0 1 1-1 3 3 0 0 1 2-1 3 3 0 0 1 2 1 3 3 0 0 1 1 4 3 3 0 0 1-2 1h-1-1a3 3 0 0 1-1 0 3 3 0 0 1-1-1 3 3 0 0 1 0-2z"/>
    </symbol>

    <symbol id="resources" viewBox="0 0 58 80">
        <g fill="none">
            <path fill="#F0C087" d="M53 6H5a4 4 0 0 0-4 4v65a4 4 0 0 0 4 4h48a4 4 0 0 0 3-4V10a4 4 0 0 0-3-4z"/>
            <path fill="#FFF" d="M6 11h45v60H6z"/>
            <path fill="#C7CFE2" d="M38 4h-5a5 5 0 0 0-9 0h-4a3 3 0 0 0-3 2v5h23V6a3 3 0 0 0-2-2z"/>
            <g fill="#B4E66E" transform="translate(13 35)">
                <circle cx="3" cy="3" r="3"/>
                <circle cx="3" cy="15" r="3"/>
                <circle cx="3" cy="26" r="3"/>
            </g>
            <path fill="#FF507D" d="M19 24h-5l-2-2v-5l2-1h5l1 1v5l-1 2z"/>
            <path fill="#000" d="M53 5H41a4 4 0 0 0-3-2h-4a6 6 0 0 0-5-3 6 6 0 0 0-5 3h-4a4 4 0 0 0-4 2H5a5 5 0 0 0-5 5v65a5 5 0 0 0 5 5h48a5 5 0 0 0 4-5V10a5 5 0 0 0-4-5zM20 5h4l1-1a4 4 0 0 1 7 0l1 1h5l1 1v4H19V6a1 1 0 0 1 1-1zm35 70a3 3 0 0 1-2 3H5a3 3 0 0 1-3-3V10a3 3 0 0 1 3-3h11v4l1 1h23l1-1V7h12a3 3 0 0 1 2 3v65z"/>
            <path fill="#000" d="M29 7a1 1 0 0 0 0-2l-1 1 1 1zm22 3h-6a1 1 0 0 0 0 2h5v58H7V12h5a1 1 0 0 0 0-2H6l-1 1v60l1 1h45l1-1V11l-1-1z"/>
            <path fill="#000" d="M16 35a4 4 0 0 0-3 4 4 4 0 0 0 3 3 4 4 0 0 0 4-3 4 4 0 0 0-4-4zm0 5a1 1 0 0 1-1-1 1 1 0 1 1 1 1zm0 6a4 4 0 0 0-3 4 4 4 0 0 0 3 4 4 4 0 0 0 4-4 4 4 0 0 0-4-4zm0 5a1 1 0 0 1-1-1 1 1 0 1 1 1 1zm0 7a4 4 0 0 0-3 3 4 4 0 0 0 3 4 4 4 0 0 0 4-4 4 4 0 0 0-4-3zm0 5a1 1 0 0 1-1-2 1 1 0 1 1 1 2zm8-26h11a1 1 0 0 0 0-2H24a1 1 0 0 0 0 2zm20 3H24a1 1 0 0 0 0 2h20a1 1 0 1 0 0-2zm-20 9h11a1 1 0 0 0 0-3H24a1 1 0 0 0 0 3zm20 2H24a1 1 0 0 0 0 3h20a1 1 0 1 0 0-3zm-20 9h11a1 1 0 0 0 0-2H24a1 1 0 0 0 0 2zm0 5h20a1 1 0 0 0 0-2H24a1 1 0 0 0 0 2zm0-46h20a1 1 0 0 0 0-3H24a1 1 0 0 0 0 3zm20 9H14a1 1 0 0 0 0 2h30a1 1 0 1 0 0-2zm-20-4h3a1 1 0 0 0 0-3h-3a1 1 0 0 0 0 3zm12 0a1 1 0 0 0 0-3h-3a1 1 0 0 0 0 3h3zm-23-7v5l1 2h5l1-2v-5l-1-1h-5l-1 1zm2 2h3v2h-3v-2z"/>
        </g>
    </symbol>

    <svg id="feedback" viewBox="0 0 89 80">
            <ellipse cx="27" cy="9" fill="#785550" rx="9" ry="7"/>
            <path fill="#694B4B" d="M24 9c0-3 2-6 6-7a10 10 0 0 0-3 0c-5 0-9 3-9 7s4 7 9 7h3c-4-1-6-4-6-7z"/>
            <circle cx="27" cy="28" r="19" fill="#5A4146"/>
            <path fill="#694B4B" d="M23 24l2 23 2 1a19 19 0 1 0-3-39c-8 2-9 13-1 15z"/>
            <path fill="#E6AF78" d="M1 79V69a6 6 0 0 1 4-5l12-6a3 3 0 0 0 2-2v-7h15v7l2 2 12 6a6 6 0 0 1 4 5v10H1z"/>
            <path fill="#D29B6E" d="M19 55a19 19 0 0 0 15 0v-6H19v6z"/>
            <path fill="#FFF082" d="M48 64l-9-4a13 13 0 0 1-25 0l-9 4a6 6 0 0 0-4 5v10h51V69a6 6 0 0 0-4-5z"/>
            <path fill="#ECA858" d="M40 31c-3-2-8-5-17-7l-3 2c-1 2-3 5-7 7l-1 3v1c0 8 6 14 14 15 8 0 15-6 15-15v-2a4 4 0 0 0-1-4z"/>
            <path fill="#E69A4E" d="M41 34l-1-3c-3-2-8-5-17-7l-3 2-1 1-6 6a3 3 0 0 0-1 3v1c0 7 5 14 13 15a15 15 0 0 1-4-10V32a3 3 0 0 1 2-3c4 0 14 2 18 5z"/>
            <path d="M4 65a6 6 0 0 0-3 4v10h11v-4a4 4 0 0 0-2-4l-6-6zm46 0a6 6 0 0 1 2 4v10H41v-4l2-4 7-6z" fill="#FFDC64"/>
            <path fill="#000" d="M49 62l-13-5a2 2 0 0 1-1-1v-5a16 16 0 0 0 7-9 21 21 0 0 0 5-14c0-7-4-14-10-18V9c0-5-5-9-10-9-6 0-11 4-11 9v1a21 21 0 0 0-5 32 16 16 0 0 0 7 9v5l-1 1-13 5a7 7 0 0 0-4 7v10a1 1 0 0 0 3 0V69a5 5 0 0 1 2-4l8-4a15 15 0 0 0 14 9 15 15 0 0 0 13-9l8 4a5 5 0 0 1 2 4v10a1 1 0 1 0 3 0V69a7 7 0 0 0-4-7zM19 9c0-3 3-6 8-6s7 3 7 6a21 21 0 0 0-7-1l-8 1zm-6 28v-1l1-1c2-1 4-3 5-6a1 1 0 1 0-3-1c0 2-2 4-3 4-2 1-3 2-3 4a18 18 0 0 1-1-8 18 18 0 1 1 34 8v-1l-2-5c-3-2-9-6-20-8a1 1 0 1 0-1 3c11 1 16 5 19 7a3 3 0 0 1 1 3v2a13 13 0 0 1-27 0zm14 30a12 12 0 0 1-11-7l2-1a4 4 0 0 0 3-3v-4a16 16 0 0 0 6 1 16 16 0 0 0 6-1v4l2 3 2 1a12 12 0 0 1-10 7z"/>
            <path fill="#000" d="M12 71l-2 2v6a1 1 0 0 0 3 0v-6l-1-2zm29 0l-1 2v6a1 1 0 0 0 3 0v-6l-2-2z"/>
            <path fill="#E2E7F2" d="M83 15H56c-2 0-4 2-4 4v21c0 2 2 3 4 3h4l-2 9 1 1 12-10h12c2 0 4-1 4-3V19c0-2-2-4-4-4z"/>
            <g transform="translate(58 7)">
                <path fill="#ECF0FA" d="M24 11a14 14 0 0 0-1-6H2a14 14 0 0 0-2 6c0 7 6 13 12 13 7 0 12-6 12-13z"/>
                <ellipse cx="12" cy="11" fill="#FFDC64" rx="9" ry="10"/>
                <ellipse cx="12" cy="11" fill="#FFF082" rx="5" ry="6"/>
                <path fill="#AFB9D2" d="M9 19v5l1 1h4l1-1v-5H9z"/>
                <path fill="#959CB5" d="M9 19v5l1 1h2v-6H9z"/>
                <path fill="#000" d="M8 20v4l2 2h1l1 1 1-1h1c2 0 2-1 2-2v-4c4-2 6-5 6-9 0-6-4-11-10-11-5 0-9 5-9 11 0 4 2 7 5 9zm3-7h3l-2 6-1-6zm3 11h-4v-3a9 9 0 0 0 4 0v3zM12 2c4 0 8 4 8 9 0 3-2 6-5 8l1-8v-1h-2v1h-4v-1H9l-1 1 2 8c-3-2-5-5-5-8 0-5 3-9 7-9z"/>
            </g>
            <path fill="#000" d="M83 14l-1 1 1 2c2 0 3 1 3 2v21c0 1-1 2-3 2H71h-1l-11 9 2-7v-1a1 1 0 0 0-1-1h-4l-2-2V19l2-2 1-2-1-1c-3 0-5 3-5 5v21c0 2 2 5 5 5h2l-1 7a2 2 0 0 0 0 2 2 2 0 0 0 2-1l12-8h12c3 0 5-3 5-5V19c0-2-2-5-5-5z"/>
            <path d="M75 8l1-1 2-2a1 1 0 1 0-1-1l-2 2a1 1 0 0 0 0 2zm-6-3l1-1V1a1 1 0 1 0-2 0v3l1 1zm-7 2a1 1 0 0 0 2 0 1 1 0 0 0 0-1l-2-2a1 1 0 0 0-2 1l2 2z" fill="#202121"/>
    </svg>

</svg>